<svg xmlns="http://www.w3.org/2000/svg" xmlns:xlink="http://www.w3.org/1999/xlink" width="500" zoomAndPan="magnify" viewBox="0 0 375 374.999991" height="500" preserveAspectRatio="xMidYMid meet" version="1.0"><defs><g/><clipPath id="1ff0013df3"><path d="M 142.394531 142.394531 L 232.605469 142.394531 L 232.605469 232.605469 L 142.394531 232.605469 Z M 142.394531 142.394531 " clip-rule="nonzero"/></clipPath><clipPath id="458ce24331"><path d="M 232.605469 171.644531 L 232.605469 203.355469 C 232.605469 219.507812 219.507812 232.605469 203.355469 232.605469 L 171.644531 232.605469 C 155.492188 232.605469 142.394531 219.507812 142.394531 203.355469 L 142.394531 171.644531 C 142.394531 155.492188 155.492188 142.394531 171.644531 142.394531 L 203.355469 142.394531 C 219.507812 142.394531 232.605469 155.492188 232.605469 171.644531 Z M 232.605469 171.644531 " clip-rule="nonzero"/></clipPath><clipPath id="31f45be7fa"><path d="M 0.394531 0.394531 L 90.605469 0.394531 L 90.605469 90.605469 L 0.394531 90.605469 Z M 0.394531 0.394531 " clip-rule="nonzero"/></clipPath><clipPath id="129a148b3d"><path d="M 90.605469 29.644531 L 90.605469 61.355469 C 90.605469 77.507812 77.507812 90.605469 61.355469 90.605469 L 29.644531 90.605469 C 13.492188 90.605469 0.394531 77.507812 0.394531 61.355469 L 0.394531 29.644531 C 0.394531 13.492188 13.492188 0.394531 29.644531 0.394531 L 61.355469 0.394531 C 77.507812 0.394531 90.605469 13.492188 90.605469 29.644531 Z M 90.605469 29.644531 " clip-rule="nonzero"/></clipPath><clipPath id="9b0f8445d7"><rect x="0" width="91" y="0" height="91"/></clipPath></defs><g clip-path="url(#1ff0013df3)"><g clip-path="url(#458ce24331)"><g transform="matrix(1, 0, 0, 1, 142, 142)"><g clip-path="url(#9b0f8445d7)"><g clip-path="url(#31f45be7fa)"><g clip-path="url(#129a148b3d)"><path fill="#000000" d="M 0.394531 0.394531 L 90.605469 0.394531 L 90.605469 90.605469 L 0.394531 90.605469 Z M 0.394531 0.394531 " fill-opacity="1" fill-rule="nonzero"/></g></g></g></g></g></g><g fill="#f6f4f0" fill-opacity="1"><g transform="translate(169.987244, 215.249986)"><g><path d="M 13.578125 -57.527344 L 21.417969 -57.527344 C 25.15625 -57.527344 28.023438 -56.527344 30.027344 -54.527344 C 32.027344 -52.523438 33.03125 -49.65625 33.03125 -45.917969 L 33.03125 -38.5 C 33.03125 -37.703125 32.789062 -37.0625 32.300781 -36.574219 C 31.816406 -36.089844 31.175781 -35.847656 30.378906 -35.847656 L 23.097656 -35.847656 C 22.304688 -35.847656 21.660156 -36.089844 21.175781 -36.574219 C 20.691406 -37.0625 20.449219 -37.703125 20.449219 -38.5 L 20.449219 -43.957031 C 20.449219 -44.46875 20.363281 -44.808594 20.195312 -44.976562 C 20.027344 -45.144531 19.691406 -45.226562 19.179688 -45.226562 L 15.820312 -45.226562 C 15.308594 -45.226562 14.96875 -45.144531 14.800781 -44.976562 C 14.632812 -44.808594 14.550781 -44.46875 14.550781 -43.957031 L 14.550781 -34.296875 L 13.019531 -34.296875 L 13.496094 -35.753906 L 30.214844 -30.273438 L 30.277344 -30.25 C 31.152344 -29.878906 31.824219 -29.359375 32.296875 -28.6875 C 32.785156 -27.992188 33.03125 -27.179688 33.03125 -26.25 L 33.03125 -10.078125 C 33.03125 -6.394531 32.03125 -3.539062 30.035156 -1.515625 C 28.03125 0.515625 25.160156 1.53125 21.417969 1.53125 L 13.578125 1.53125 C 9.890625 1.53125 7.03125 0.519531 5.007812 -1.507812 C 2.980469 -3.53125 1.96875 -6.390625 1.96875 -10.078125 L 1.96875 -17.429688 C 1.96875 -18.226562 2.210938 -18.867188 2.695312 -19.351562 C 3.183594 -19.835938 3.824219 -20.082031 4.621094 -20.082031 L 11.898438 -20.082031 C 12.695312 -20.082031 13.335938 -19.835938 13.824219 -19.351562 C 14.308594 -18.867188 14.550781 -18.226562 14.550781 -17.429688 L 14.550781 -12.039062 C 14.550781 -11.527344 14.632812 -11.191406 14.800781 -11.023438 C 14.96875 -10.855469 15.308594 -10.769531 15.820312 -10.769531 L 19.179688 -10.769531 C 19.691406 -10.769531 20.027344 -10.855469 20.195312 -11.023438 C 20.363281 -11.191406 20.449219 -11.527344 20.449219 -12.039062 L 20.449219 -21.347656 L 21.980469 -21.347656 L 21.5 -19.894531 L 4.910156 -25.355469 C 3.96875 -25.667969 3.242188 -26.171875 2.734375 -26.867188 C 2.222656 -27.570312 1.96875 -28.414062 1.96875 -29.398438 L 1.96875 -45.917969 C 1.96875 -49.660156 2.984375 -52.53125 5.015625 -54.53125 C 7.039062 -56.53125 9.894531 -57.527344 13.578125 -57.527344 Z M 13.578125 -54.464844 C 10.730469 -54.464844 8.59375 -53.761719 7.164062 -52.351562 C 5.742188 -50.949219 5.03125 -48.804688 5.03125 -45.917969 L 5.03125 -29.398438 C 5.03125 -29.078125 5.089844 -28.835938 5.210938 -28.675781 C 5.332031 -28.507812 5.550781 -28.371094 5.867188 -28.261719 L 23.511719 -22.457031 L 23.511719 -12.039062 C 23.511719 -10.683594 23.128906 -9.621094 22.363281 -8.855469 C 21.597656 -8.089844 20.535156 -7.707031 19.179688 -7.707031 L 15.820312 -7.707031 C 14.464844 -7.707031 13.402344 -8.089844 12.636719 -8.855469 C 11.871094 -9.621094 11.488281 -10.683594 11.488281 -12.039062 L 11.488281 -17.429688 L 11.496094 -17.433594 C 11.527344 -17.347656 11.578125 -17.261719 11.65625 -17.1875 C 11.734375 -17.109375 11.816406 -17.054688 11.90625 -17.027344 L 11.898438 -17.019531 L 4.621094 -17.019531 L 4.613281 -17.027344 C 4.703125 -17.054688 4.785156 -17.109375 4.863281 -17.1875 C 4.941406 -17.261719 4.992188 -17.347656 5.023438 -17.433594 L 5.03125 -17.429688 L 5.03125 -10.078125 C 5.03125 -7.234375 5.746094 -5.101562 7.171875 -3.671875 C 8.601562 -2.246094 10.734375 -1.53125 13.578125 -1.53125 L 21.417969 -1.53125 C 24.304688 -1.53125 26.449219 -2.242188 27.855469 -3.664062 C 29.261719 -5.09375 29.96875 -7.230469 29.96875 -10.078125 L 29.96875 -26.25 C 29.96875 -26.53125 29.910156 -26.757812 29.792969 -26.925781 C 29.65625 -27.117188 29.417969 -27.285156 29.082031 -27.429688 L 29.679688 -28.839844 L 29.203125 -27.382812 L 11.488281 -33.1875 L 11.488281 -43.957031 C 11.488281 -45.316406 11.871094 -46.375 12.636719 -47.140625 C 13.402344 -47.90625 14.464844 -48.289062 15.820312 -48.289062 L 19.179688 -48.289062 C 20.535156 -48.289062 21.597656 -47.90625 22.363281 -47.140625 C 23.128906 -46.375 23.511719 -45.316406 23.511719 -43.957031 L 23.511719 -38.5 L 23.5 -38.492188 C 23.472656 -38.582031 23.417969 -38.664062 23.34375 -38.742188 C 23.265625 -38.820312 23.183594 -38.871094 23.09375 -38.902344 L 23.097656 -38.910156 L 30.378906 -38.910156 L 30.382812 -38.902344 C 30.296875 -38.871094 30.214844 -38.820312 30.136719 -38.742188 C 30.058594 -38.664062 30.003906 -38.582031 29.976562 -38.492188 L 29.96875 -38.5 L 29.96875 -45.917969 C 29.96875 -48.808594 29.265625 -50.957031 27.859375 -52.359375 C 26.457031 -53.765625 24.308594 -54.464844 21.417969 -54.464844 Z M 13.578125 -54.464844 "/></g></g></g><g fill="#f6f4f0" fill-opacity="1"><g transform="translate(169.987244, 215.249986)"><g><path d="M 13.578125 -56 L 21.421875 -56 C 24.734375 -56 27.238281 -55.144531 28.9375 -53.4375 C 30.644531 -51.738281 31.5 -49.234375 31.5 -45.921875 L 31.5 -38.5 C 31.5 -37.75 31.125 -37.375 30.375 -37.375 L 23.09375 -37.375 C 22.351562 -37.375 21.984375 -37.75 21.984375 -38.5 L 21.984375 -43.953125 C 21.984375 -45.828125 21.050781 -46.765625 19.1875 -46.765625 L 15.8125 -46.765625 C 13.945312 -46.765625 13.015625 -45.828125 13.015625 -43.953125 L 13.015625 -34.296875 L 29.6875 -28.84375 C 30.894531 -28.320312 31.5 -27.457031 31.5 -26.25 L 31.5 -10.078125 C 31.5 -6.816406 30.644531 -4.320312 28.9375 -2.59375 C 27.238281 -0.863281 24.734375 0 21.421875 0 L 13.578125 0 C 10.316406 0 7.820312 -0.863281 6.09375 -2.59375 C 4.363281 -4.320312 3.5 -6.816406 3.5 -10.078125 L 3.5 -17.4375 C 3.5 -18.175781 3.875 -18.546875 4.625 -18.546875 L 11.90625 -18.546875 C 12.644531 -18.546875 13.015625 -18.175781 13.015625 -17.4375 L 13.015625 -12.046875 C 13.015625 -10.171875 13.945312 -9.234375 15.8125 -9.234375 L 19.1875 -9.234375 C 21.050781 -9.234375 21.984375 -10.171875 21.984375 -12.046875 L 21.984375 -21.34375 L 5.390625 -26.8125 C 4.128906 -27.226562 3.5 -28.09375 3.5 -29.40625 L 3.5 -45.921875 C 3.5 -49.234375 4.363281 -51.738281 6.09375 -53.4375 C 7.820312 -55.144531 10.316406 -56 13.578125 -56 Z M 13.578125 -56 "/></g></g></g></svg>